<svg width="147" height="156" viewBox="0 0 147 156" fill="none" xmlns="http://www.w3.org/2000/svg">
<path fill-rule="evenodd" clip-rule="evenodd" d="M69.2834 155.257C111.847 155.257 146.352 120.752 146.352 78.1879C146.352 35.624 93.6376 0.448975 51.0737 0.448975C8.50986 0.448975 0.288574 35.624 0.288574 78.1879C0.288574 120.752 26.7195 155.257 69.2834 155.257ZM59.8942 99.6128L91.1822 81.4585C91.7863 81.1137 92.2883 80.6153 92.6376 80.0138C92.9868 79.4123 93.1707 78.7292 93.1707 78.0337C93.1707 77.3382 92.9868 76.6551 92.6376 76.0536C92.2883 75.4521 91.7863 74.9537 91.1822 74.6089L59.8942 56.4546C57.234 54.9106 53.8313 56.7792 53.8313 59.877V96.1855C53.8313 99.2882 57.2389 101.152 59.8942 99.6128Z" fill="#F8E1C1"/>
</svg>
