<svg width="147" height="156" viewBox="0 0 147 156" fill="none" xmlns="http://www.w3.org/2000/svg">
<path fill-rule="evenodd" clip-rule="evenodd" d="M69.2534 155.189C111.799 155.189 146.289 120.7 146.289 78.1541C146.289 35.6087 93.5971 0.448975 51.0517 0.448975C8.50629 0.448975 0.288574 35.6087 0.288574 78.1541C0.288574 120.699 26.708 155.189 69.2534 155.189ZM59.8683 99.5696L91.1427 81.4233C91.7465 81.0786 92.2484 80.5804 92.5974 79.9792C92.9465 79.378 93.1304 78.6952 93.1304 77.9999C93.1304 77.3047 92.9465 76.6219 92.5974 76.0207C92.2484 75.4195 91.7465 74.9213 91.1427 74.5766L59.8683 56.4303C57.2092 54.8869 53.808 56.7546 53.808 59.8511V96.1439C53.808 99.2453 57.2142 101.108 59.8683 99.5696Z" fill="#B2AEE9"/>
</svg>
