<svg width="84" height="57" viewBox="0 0 84 57" fill="none" xmlns="http://www.w3.org/2000/svg">
<path fill-rule="evenodd" clip-rule="evenodd" d="M0.77629 25.911L1.04011 51.581L8.45083 53.892C17.5828 56.739 22.2545 56.81 31.4171 54.24C40.2329 51.767 42.6053 51.767 51.927 54.24C61.5639 56.796 66.5963 56.733 75.6413 53.942L83.052 51.656L83.3158 25.828L83.5797 0L81.3396 0.514C80.1075 0.797 75.6986 1.946 71.5417 3.067C63.465 5.246 63.3079 5.235 46.3463 1.164C41.8712 0.09 40.2408 0.202 32.7955 2.092C22.294 4.757 17.2824 4.792 9.27984 2.253C5.83534 1.16 2.45309 0.26 1.76439 0.253C0.779254 0.243 0.56879 5.713 0.77629 25.911Z" fill="#86E874"/>
</svg>
