<svg width="31" height="32" viewBox="0 0 31 32" fill="none" xmlns="http://www.w3.org/2000/svg">
<path d="M30.1925 16.0693C30.1925 24.8676 23.0601 32 14.2618 32C5.46349 32 0 24.8676 0 16.0693C0 7.27097 1.69941 0 10.4977 0C19.296 0 30.1925 7.27097 30.1925 16.0693Z" fill="#6A68D4"/>
<path d="M16.47 8.13397C16.318 8.04621 16.1455 8 15.97 8C15.7945 8 15.622 8.04621 15.47 8.13397L9.7 12.014H8C7.20435 12.014 6.44129 12.33 5.87868 12.8927C5.31607 13.4553 5 14.2183 5 15.014V18.014C5 18.8096 5.31607 19.5727 5.87868 20.1353C6.44129 20.6979 7.20435 21.014 8 21.014H9.76L15.55 23.904C15.6893 23.9754 15.8435 24.013 16 24.014C16.1872 24.0146 16.3709 23.9626 16.53 23.864C16.6741 23.7739 16.7929 23.6486 16.8751 23.4999C16.9574 23.3511 17.0003 23.1839 17 23.014V9.01397C16.9995 8.83307 16.95 8.65569 16.8566 8.50072C16.7633 8.34575 16.6297 8.219 16.47 8.13397ZM7 18.014V15.014C7 14.7488 7.10536 14.4944 7.29289 14.3069C7.48043 14.1193 7.73478 14.014 8 14.014H9V19.014H8C7.73478 19.014 7.48043 18.9086 7.29289 18.7211C7.10536 18.5335 7 18.2792 7 18.014ZM15 21.394L11 19.394V13.554L15 10.884V21.394ZM24.71 17.304C24.8037 17.3969 24.8781 17.5075 24.9289 17.6294C24.9797 17.7513 25.0058 17.882 25.0058 18.014C25.0058 18.146 24.9797 18.2767 24.9289 18.3986C24.8781 18.5204 24.8037 18.631 24.71 18.724C24.617 18.8177 24.5064 18.8921 24.3846 18.9429C24.2627 18.9936 24.132 19.0198 24 19.0198C23.868 19.0198 23.7373 18.9936 23.6154 18.9429C23.4936 18.8921 23.383 18.8177 23.29 18.724L22 17.424L20.71 18.724C20.617 18.8177 20.5064 18.8921 20.3846 18.9429C20.2627 18.9936 20.132 19.0198 20 19.0198C19.868 19.0198 19.7373 18.9936 19.6154 18.9429C19.4936 18.8921 19.383 18.8177 19.29 18.724C19.1963 18.631 19.1219 18.5204 19.0711 18.3986C19.0203 18.2767 18.9942 18.146 18.9942 18.014C18.9942 17.882 19.0203 17.7513 19.0711 17.6294C19.1219 17.5075 19.1963 17.3969 19.29 17.304L20.59 16.014L19.29 14.724C19.1968 14.6307 19.1228 14.52 19.0723 14.3982C19.0219 14.2764 18.9959 14.1458 18.9959 14.014C18.9959 13.7477 19.1017 13.4923 19.29 13.304C19.4783 13.1157 19.7337 13.0099 20 13.0099C20.1319 13.0099 20.2624 13.0359 20.3842 13.0863C20.5061 13.1368 20.6168 13.2107 20.71 13.304L22 14.604L23.29 13.304C23.4783 13.1157 23.7337 13.0099 24 13.0099C24.2663 13.0099 24.5217 13.1157 24.71 13.304C24.8983 13.4923 25.0041 13.7477 25.0041 14.014C25.0041 14.2803 24.8983 14.5357 24.71 14.724L23.41 16.014L24.71 17.304Z" fill="white"/>
</svg>
