<svg width="31" height="32" viewBox="0 0 31 32" fill="none" xmlns="http://www.w3.org/2000/svg">
<path d="M30.1925 16.0693C30.1925 24.8676 23.0601 32 14.2618 32C5.46349 32 0 24.8676 0 16.0693C0 7.27097 1.69941 0 10.4977 0C19.296 0 30.1925 7.27097 30.1925 16.0693Z" fill="#6A68D4"/>
<path d="M16.47 8.13397C16.318 8.04621 16.1455 8 15.97 8C15.7945 8 15.622 8.04621 15.47 8.13397L9.7 12.014H8C7.20435 12.014 6.44129 12.33 5.87868 12.8927C5.31607 13.4553 5 14.2183 5 15.014V18.014C5 18.8096 5.31607 19.5727 5.87868 20.1353C6.44129 20.6979 7.20435 21.014 8 21.014H9.76L15.55 23.904C15.6893 23.9754 15.8435 24.013 16 24.014C16.1872 24.0146 16.3709 23.9626 16.53 23.864C16.6741 23.7739 16.7929 23.6486 16.8751 23.4999C16.9574 23.3511 17.0003 23.1839 17 23.014V9.01397C16.9995 8.83307 16.95 8.65569 16.8566 8.50072C16.7633 8.34575 16.6297 8.219 16.47 8.13397ZM7 18.014V15.014C7 14.7488 7.10536 14.4944 7.29289 14.3069C7.48043 14.1193 7.73478 14.014 8 14.014H9V19.014H8C7.73478 19.014 7.48043 18.9086 7.29289 18.7211C7.10536 18.5335 7 18.2792 7 18.014ZM15 21.394L11 19.394V13.554L15 10.884V21.394ZM20.89 18.464C20.8069 18.6289 20.6798 18.7676 20.5227 18.8647C20.3656 18.9617 20.1847 19.0134 20 19.014C19.8437 19.0109 19.6901 18.9734 19.55 18.904C19.3145 18.7841 19.136 18.5758 19.0535 18.3248C18.9711 18.0737 18.9914 17.8001 19.11 17.564C19.3466 17.0815 19.4696 16.5513 19.4696 16.014C19.4696 15.4766 19.3466 14.9464 19.11 14.464C18.9914 14.2278 18.9711 13.9543 19.0535 13.7032C19.136 13.4521 19.3145 13.2439 19.55 13.124C19.6883 13.0499 19.8431 13.0121 20 13.014C20.1847 13.0145 20.3656 13.0662 20.5227 13.1633C20.6798 13.2604 20.8069 13.3991 20.89 13.564C21.2695 14.3249 21.467 15.1636 21.467 16.014C21.467 16.8643 21.2695 17.703 20.89 18.464ZM25 16.014C25.0118 17.5543 24.6696 19.0768 24 20.464C23.9161 20.6304 23.7874 20.7701 23.6284 20.8673C23.4694 20.9645 23.2864 21.0153 23.1 21.014C22.9431 21.0159 22.7883 20.978 22.65 20.904C22.4145 20.7841 22.236 20.5758 22.1535 20.3248C22.0711 20.0737 22.0914 19.8001 22.21 19.564C22.6204 18.7348 22.8875 17.8422 23 16.924C23 16.854 23 16.794 23 16.724C23 16.484 23 16.254 23 16.014C23 15.774 23 15.544 23 15.304C23 15.234 23 15.174 23 15.104C22.8906 14.1863 22.6269 13.2937 22.22 12.464C22.1014 12.2278 22.0811 11.9543 22.1635 11.7032C22.246 11.4521 22.4245 11.2439 22.66 11.124C22.7834 11.0577 22.9201 11.0201 23.06 11.014C23.2464 11.0127 23.4294 11.0635 23.5884 11.1607C23.7474 11.2579 23.8761 11.3975 23.96 11.564C24.6435 12.9479 24.9993 14.4705 25 16.014Z" fill="white"/>
</svg>
