<?xml version="1.0" encoding="utf-8"?>
<!-- Generator: Adobe Illustrator 28.0.0, SVG Export Plug-In . SVG Version: 6.00 Build 0)  -->
<svg version="1.1" xmlns="http://www.w3.org/2000/svg" xmlns:xlink="http://www.w3.org/1999/xlink" x="0px" y="0px"
	 viewBox="0 0 595.3 308.3" style="enable-background:new 0 0 595.3 308.3;" xml:space="preserve">
<style type="text/css">
	.st0{fill:#6A68D4;}
	.st1{fill:#86E874;}
	.st2{fill:#F6F6F6;}
</style>
<g id="STUDIO">
	<g>
		<path class="st0" d="M149.2,249.1c-1.7-1.4-3.7-2.6-5.8-3.6c-2.1-1-4.3-1.9-6.5-2.7c-2.7-1.1-5.3-2.2-7.7-3.3
			c-2.4-1.1-4.4-2.5-5.9-4.2c-1.5-1.6-2.2-3.7-2.2-6.2c0-3.3,1.3-6,3.9-8.2c2.6-2.2,6.1-3.3,10.4-3.3c2.8,0,5.6,0.4,8.4,1.2
			c2.8,0.8,5.1,1.7,7.1,2.6l1.8-3.5c-2.4-1.2-5.1-2.3-8.3-3.1c-3.2-0.8-6.3-1.2-9.4-1.2c-3.5,0.1-6.7,0.8-9.4,2.1
			c-2.8,1.3-4.9,3.2-6.6,5.5c-1.6,2.4-2.4,5.1-2.4,8.3c0,2.5,0.5,4.7,1.5,6.5c1,1.8,2.4,3.3,4.1,4.6c1.7,1.3,3.7,2.4,5.8,3.3
			c2.1,0.9,4.2,1.8,6.3,2.6c2.7,1,5.3,2.1,7.7,3.3c2.4,1.2,4.4,2.8,6,4.8c1.5,2,2.3,4.5,2.3,7.7c0,3.3-0.8,6-2.5,8.1
			c-1.6,2.1-3.7,3.7-6.2,4.8c-2.5,1.1-5.1,1.6-7.8,1.6c-2.3,0-4.6-0.3-6.9-1c-2.3-0.7-4.4-1.5-6.4-2.5c-2-1-3.6-2-5-3l-2.1,3.7
			c1.2,0.7,2.8,1.7,4.8,2.7c2,1.1,4.4,2,7.1,2.8c2.7,0.8,5.7,1.2,9,1.2c4.1,0,7.7-0.8,10.8-2.3c3.1-1.5,5.5-3.7,7.3-6.6
			c1.7-2.8,2.6-6.1,2.6-9.7c0-3.1-0.5-5.7-1.5-7.8C152.3,252.3,150.9,250.6,149.2,249.1z"/>
		<polygon class="st0" points="170.3,218.5 189.6,218.5 189.6,280.1 194.1,280.1 194.1,218.5 213.6,218.5 213.6,214.1 170.3,214.1 
					"/>
		<path class="st0" d="M274.6,257.8c0,3.8-0.8,7.2-2.4,10c-1.6,2.8-3.8,4.9-6.5,6.5c-2.8,1.5-5.9,2.3-9.4,2.3
			c-3.5,0-6.6-0.8-9.3-2.3c-2.7-1.5-4.9-3.7-6.5-6.5c-1.6-2.8-2.4-6.1-2.4-10v-43.7h-4.6v44c0,4.8,1,8.9,3,12.3c2,3.4,4.7,6,8.1,7.8
			c3.4,1.8,7.3,2.7,11.6,2.7c4.3,0,8.1-0.9,11.6-2.7c3.4-1.8,6.2-4.4,8.2-7.8s3-7.5,3-12.3v-44h-4.5V257.8z"/>
		<path class="st0" d="M347.8,225.1c-2.8-3.3-6.4-5.9-10.9-8c-4.5-2-9.9-3-16.3-3h-16.3v66h19.4c4.3,0,8.3-0.8,12.2-2.3
			c3.8-1.5,7.3-3.7,10.3-6.6s5.4-6.3,7.1-10.3c1.7-4,2.6-8.5,2.6-13.5c0-3.8-0.6-7.7-2-11.6C352.7,231.9,350.6,228.3,347.8,225.1z
			 M349,259.1c-1.5,3.5-3.5,6.5-6.2,9c-2.6,2.5-5.7,4.4-9.2,5.7c-3.5,1.3-7.2,2-11.2,2h-13.7v-57.2h12.4c5,0,9.3,0.8,13,2.3
			s6.8,3.7,9.4,6.3c2.5,2.7,4.4,5.7,5.7,9.2c1.3,3.4,1.9,7.1,1.9,10.8C351.3,251.6,350.5,255.6,349,259.1z"/>
		<rect x="377.4" y="214.1" class="st0" width="4.6" height="66"/>
		<path class="st0" d="M461,223.3c-3.1-3.1-6.7-5.6-10.8-7.3c-4.1-1.8-8.5-2.7-13.1-2.7s-9,0.9-13.1,2.7c-4.1,1.8-7.6,4.2-10.7,7.3
			c-3.1,3.1-5.5,6.7-7.3,10.8c-1.7,4.1-2.6,8.4-2.6,13.1c0,4.8,0.9,9.3,2.6,13.4c1.7,4.1,4.2,7.7,7.3,10.7c3.1,3,6.7,5.4,10.7,7.1
			c4.1,1.7,8.4,2.5,13.1,2.5s9-0.9,13.1-2.6c4.1-1.7,7.7-4.2,10.8-7.3c3.1-3.1,5.5-6.7,7.3-10.7c1.8-4.1,2.7-8.4,2.7-13.1
			c0-4.6-0.9-9-2.7-13.1C466.5,230.1,464.1,226.5,461,223.3z M464,258.6c-1.5,3.5-3.6,6.6-6.3,9.3c-2.7,2.7-5.8,4.8-9.3,6.3
			c-3.5,1.5-7.3,2.3-11.4,2.3c-4,0-7.7-0.8-11.2-2.3c-3.5-1.5-6.6-3.6-9.3-6.3c-2.7-2.7-4.7-5.8-6.2-9.3c-1.5-3.5-2.2-7.3-2.2-11.3
			c0-4,0.7-7.7,2.2-11.3c1.5-3.6,3.5-6.7,6.1-9.4c2.6-2.7,5.7-4.9,9.3-6.5c3.5-1.6,7.3-2.4,11.4-2.4c4,0,7.8,0.8,11.3,2.3
			c3.5,1.5,6.6,3.7,9.3,6.4c2.7,2.7,4.8,5.8,6.3,9.4c1.5,3.6,2.3,7.4,2.3,11.4C466.3,251.3,465.5,255.1,464,258.6z"/>
	</g>
</g>
<g id="i">
	<g>
		<polygon class="st1" points="547.5,58.3 547.5,171.4 572.7,160 572.7,46.4 		"/>
		<polygon class="st2" points="545.6,32.4 522.6,43.5 542.8,53.6 545.6,55.1 570.2,43.5 		"/>
		<path class="st0" d="M576.4,43.4c0-0.3-0.1-0.6-0.2-0.8c0,0,0-0.1,0-0.1c-0.1-0.2-0.3-0.4-0.5-0.6c0,0,0,0-0.1-0.1
			c0,0-0.1,0-0.1,0c-0.1,0-0.1-0.1-0.2-0.1l-29-13.1c-0.5-0.2-1.1-0.2-1.6,0l-26.9,12.9l-0.4,0.2c0,0,0,0-0.1,0c0,0-0.1,0-0.1,0
			c-0.1,0-0.1,0.1-0.2,0.1c-0.1,0-0.1,0.1-0.2,0.1c-0.1,0.1-0.1,0.2-0.2,0.2c0,0.1-0.1,0.1-0.1,0.2c-0.1,0.1-0.1,0.2-0.1,0.3
			c0,0.1,0,0.1-0.1,0.2c0,0.1-0.1,0.3-0.1,0.5c0,0,0,0,0,0c0,0,0,0,0,0s0,0,0,0v117.8c0,0.7,0.4,1.3,0.9,1.6l27.3,13.1
			c0.1,0,0.1,0,0.2,0.1c0,0,0.1,0,0.1,0c0.2,0,0.3,0.1,0.5,0.1c0.2,0,0.3,0,0.5-0.1c0,0,0.1,0,0.1,0c0.1,0,0.1,0,0.2-0.1l29-13.1
			c0.7-0.3,1.1-1,1.1-1.7V43.4C576.4,43.4,576.4,43.4,576.4,43.4C576.4,43.4,576.4,43.4,576.4,43.4z M545.6,32.4l24.5,11.1
			l-24.5,11.6l-23.1-11.6L545.6,32.4z M572.7,160l-25.3,11.4V58.3l25.3-11.9V160z"/>
	</g>
</g>
<g id="k">
	<g>
		<polygon class="st1" points="398.6,31.9 385.3,31.9 385.3,79.9 398.6,64.9 		"/>
		<path class="st1" d="M436.2,91.1l43.1-46.8l-23.2,1L385.3,122V167h13.3v-40.6c0-0.5,0.2-1,0.6-1.3l0.7-0.7
			c0.1-0.2,0.2-0.3,0.3-0.4l15.6-15.3c0.1-0.1,0.2-0.1,0.3-0.2l0.2-0.2c0.4-0.4,0.9-0.6,1.4-0.5c0.5,0,1,0.3,1.3,0.8l42.2,58.5h30.1
			l-55.3-73.6C435.5,92.7,435.6,91.7,436.2,91.1z"/>
		<path class="st2" d="M466.4,31.3h-2.5h-26l1.1,0.6l15.9,9.2l0.8,0.5l0.5,0.3c0.1,0.1,0.2,0.2,0.3,0.3c0,0,0,0,0,0l2.5-0.1
			l20.2-0.8l1,0l-13-9.9H466.4z"/>
		<path class="st0" d="M440,92.4L485,43.5c0,0,0-0.1,0-0.1c0.1-0.2,0.2-0.3,0.3-0.5c0,0,0-0.1,0-0.1c0,0,0,0,0,0
			c0.1-0.2,0.1-0.4,0.1-0.7c0,0,0,0,0-0.1c0,0,0-0.1,0-0.1c0-0.2-0.1-0.3-0.2-0.5c0-0.1-0.1-0.1-0.1-0.2c-0.1-0.2-0.3-0.4-0.5-0.5
			l-16.1-12.2c-0.2-0.1-0.4-0.2-0.6-0.3c-0.1,0-0.2,0-0.2,0c-0.1,0-0.2-0.1-0.3-0.1h-35.5c-0.1,0-0.1,0-0.2,0c-0.1,0-0.2,0-0.3,0
			c-0.1,0-0.2,0.1-0.3,0.1c-0.1,0-0.2,0.1-0.2,0.1c-0.1,0.1-0.2,0.1-0.3,0.2c0,0-0.1,0.1-0.1,0.1l-28.4,31.9V30.1
			c0-1-0.8-1.9-1.9-1.9h-44.8c-1,0-1.9,0.8-1.9,1.9v138.8c0,1,0.8,1.9,1.9,1.9h44.8c1,0,1.9-0.8,1.9-1.9v-39.3l29.2,40.4
			c0.3,0.5,0.9,0.8,1.5,0.8l62,0c0.7,0,1.3-0.4,1.7-1c0.3-0.6,0.2-1.4-0.2-1.9L440,92.4z M466.4,31.3h0.7l13,9.9l-1,0L459.1,42
			l-2.5,0.1c-0.1-0.1-0.2-0.2-0.4-0.3l-18.2-10.5h26H466.4z M398.6,64.9l-13.3,15v-48h13.3V64.9z M461.3,167l-42.2-58.5
			c-0.3-0.4-0.8-0.7-1.3-0.8c-0.5-0.1-1.1,0.1-1.4,0.5l-0.1,0.1c-0.1,0.1-0.3,0.2-0.4,0.3L400.2,124c-0.1,0.1-0.3,0.3-0.3,0.5
			l-0.7,0.7c-0.4,0.3-0.6,0.8-0.6,1.3V167h-13.3V122l70.8-76.7l23.2-1l-43.1,46.8c-0.6,0.7-0.7,1.7-0.1,2.4l55.3,73.6H461.3z"/>
	</g>
</g>
<g id="u">
	<g>
		<path class="st1" d="M294.2,117.4c0,10.5-2.6,19.9-7.8,28.1c-5.2,8.1-12.3,14.5-21.1,19.1c-2.4,1.2-4.8,2.3-7.3,3.2h5.3
			c10.1,0,19.4-2.2,27.6-6.5c8.2-4.3,14.8-10.3,19.7-17.8c4.8-7.5,7.3-16.3,7.3-26.1V31.2h-23.6V117.4z"/>
		<path class="st1" d="M237,130.5c-2.8-4.3-4.3-8.9-4.3-13.7l0-0.1l1.5-70.3L209,58.3l0.1,25.5l0.1,33c0,4,1.2,7.9,3.7,11.6
			c2.5,3.8,5.8,6.9,9.8,9.2c4,2.3,8.5,3.5,13.3,3.5c1.1,0,2.2-0.1,3.3-0.2c0.5,0,0.9-0.1,1.4-0.2c0.5-0.1,1-0.2,1.5-0.3
			c1.3-0.3,2.6-0.6,3.9-1.1c0,0,0,0,0,0C242.4,137.1,239.3,134.1,237,130.5z"/>
		<polygon class="st2" points="184.5,43.3 190.1,46.2 207.2,55.1 231.7,43.5 207.1,32.4 		"/>
		<path class="st0" d="M313.7,145.5c5.2-8.1,7.8-17.6,7.8-28.1V29.3c0-1-0.8-1.9-1.9-1.9h-54.3c-1,0-1.9,0.8-1.9,1.9v87.5
			c0,4-1.2,7.9-3.6,11.6c-2.4,3.8-5.7,6.8-9.8,9.2c0,0-0.1,0-0.1,0.1c0,0,0,0-0.1,0c-1.6-0.9-3-1.9-4.3-3.1c-2.1-1.8-4-3.8-5.6-6.2
			c-1.1-1.6-1.8-3.2-2.4-4.9c-0.8-2.2-1.2-4.4-1.2-6.7l1.5-73.4c0,0,0,0,0-0.1c0-0.1,0-0.1,0-0.2c0-0.2-0.1-0.3-0.1-0.5
			c0,0,0-0.1,0-0.1c0,0,0,0-0.1-0.1c-0.1-0.2-0.2-0.3-0.4-0.5c0,0,0,0,0-0.1c-0.1-0.1-0.3-0.2-0.5-0.3c0,0,0,0,0,0l-29-13.1
			c-0.5-0.2-1.1-0.2-1.6,0l-26.9,12.9l-0.4,0.2c-0.1,0.1-0.3,0.2-0.4,0.3c0,0-0.1,0.1-0.1,0.1c-0.1,0.1-0.2,0.2-0.2,0.3
			c0,0,0,0.1-0.1,0.1c-0.1,0.1-0.1,0.3-0.2,0.4c0,0,0,0.1,0,0.1c0,0.1,0,0.2-0.1,0.4c0,0,0,0,0,0.1v74c0,10.5,2.6,19.9,7.8,28.1
			c5.2,8.1,12.2,14.5,21,19.1c8.7,4.6,18.5,6.9,29.1,6.9h27.3c10.7,0,20.6-2.3,29.3-6.9C301.4,160,308.5,153.6,313.7,145.5z
			 M237,130.5c2.3,3.6,5.4,6.6,9,9c-2.3,0.8-4.7,1.3-7.2,1.6c-0.1,0-0.2,0-0.3,0c-0.8,0.1-1.7,0.1-2.5,0.1c-4.8,0-9.3-1.2-13.3-3.5
			c-4.1-2.4-7.4-5.5-9.8-9.2c-2.4-3.7-3.7-7.6-3.7-11.6l-0.1-33L209,58.3l25.2-11.9l-1.5,70.3l0,0.1
			C232.7,121.6,234.1,126.2,237,130.5z M207.1,32.4l24.5,11.1l-24.5,11.6l-22.7-11.8L207.1,32.4z M290.9,161.3
			c-8.2,4.3-17.5,6.5-27.6,6.5h-5.3c2.5-0.9,5-2,7.3-3.2c8.8-4.6,15.9-11,21.1-19.1c5.2-8.1,7.8-17.6,7.8-28.1V31.2h23.6v86.2
			c0,9.8-2.4,18.6-7.3,26.1C305.7,151,299.1,157,290.9,161.3z"/>
	</g>
</g>
<g id="t">
	<g>
		<rect x="98" y="57.6" class="st1" width="23.6" height="108.7"/>
		<rect x="24.6" y="31.2" class="st2" width="23.6" height="22.7"/>
		<path class="st0" d="M157.3,27.5H50H22.7c-1,0-1.9,0.8-1.9,1.9v26.4c0,1,0.8,1.9,1.9,1.9H50H67v110.6c0,1,0.8,1.9,1.9,1.9h27.4
			h27.3c1,0,1.9-0.8,1.9-1.9V57.6h31.9c1,0,1.9-0.8,1.9-1.9V29.3C159.1,28.3,158.3,27.5,157.3,27.5z M24.6,31.2h23.6v22.7H24.6V31.2
			z M121.6,166.3H98V57.6h23.6V166.3z"/>
	</g>
</g>
</svg>
